<svg xmlns="http://www.w3.org/2000/svg" viewBox="0 0 100 100" fill="none">
  <circle cx="50" cy="50" r="48" fill="#2775ca"/>
  <path d="M50 18C32.3 18 18 32.3 18 50C18 67.7 32.3 82 50 82C67.7 82 82 67.7 82 50C82 32.3 67.7 18 50 18ZM61.5 58.5C61.5 65.4 56.4 68.5 50 69.4V75H46V69.3C39.6 68.4 34.5 65.2 34.5 58.5H41C41 62.5 44 64.5 48 64.9V53.5L46 53C39.5 51.5 35.5 48.5 35.5 42C35.5 35.5 40.5 31.5 46 30.6V25H50V30.6C56.5 31.5 61.5 35 61.5 41.5H55C55 38 52.5 35.5 50 35.1V45.5L52 46C58.5 47.5 63 50.5 63 57C63 57.5 62.8 58 61.5 58.5Z" fill="white"/>
  <path d="M46 45V35.5C43 36 41 38 41 41C41 44 43 45 46 45Z" fill="white"/>
  <path d="M50 55V64.5C53.5 64 56 62 56 59C56 56 53.5 55 50 55Z" fill="white"/>
</svg>
